<svg width="512" height="512" viewBox="0 0 512 512" fill="none" xmlns="http://www.w3.org/2000/svg">
<rect width="512" height="512" fill="white"/>
<rect width="512" height="512" rx="50" fill="#2F2F2F"/>
<path d="M142.688 244.544C141.28 244.544 140.085 244.053 139.104 243.072C138.123 242.091 137.632 240.896 137.632 239.488C137.632 238.08 138.123 236.885 139.104 235.904C140.085 234.88 141.28 234.368 142.688 234.368C144.096 234.368 145.291 234.88 146.272 235.904C147.296 236.885 147.808 238.08 147.808 239.488C147.808 240.896 147.296 242.091 146.272 243.072C145.291 244.053 144.096 244.544 142.688 244.544ZM138.336 280.384C136.288 280.384 134.624 279.744 133.344 278.464C132.107 277.184 131.488 275.264 131.488 272.704C131.488 271.637 131.659 270.251 132 268.544L136.352 248H145.568L140.96 269.76C140.789 270.4 140.704 271.083 140.704 271.808C140.704 272.661 140.896 273.28 141.28 273.664C141.707 274.005 142.389 274.176 143.328 274.176C144.565 274.176 145.717 273.664 146.784 272.64C147.851 271.573 148.619 270.208 149.088 268.544H151.776C150.197 273.152 148.171 276.288 145.696 277.952C143.221 279.573 140.768 280.384 138.336 280.384ZM172.167 280.384C169.564 280.384 167.644 279.701 166.407 278.336C165.212 276.928 164.615 275.2 164.615 273.152C164.615 272.256 164.721 271.253 164.935 270.144C165.148 268.992 165.361 267.883 165.575 266.816C165.831 265.749 166.001 265.067 166.087 264.768C166.428 263.275 166.748 261.803 167.047 260.352C167.345 258.901 167.495 257.728 167.495 256.832C167.495 254.656 166.727 253.568 165.191 253.568C164.081 253.568 163.1 254.123 162.247 255.232C161.393 256.299 160.711 257.707 160.199 259.456L155.847 280H146.63L153.415 248H162.631L161.927 251.328C164.06 248.939 166.556 247.744 169.415 247.744C171.591 247.744 173.319 248.341 174.599 249.536C175.879 250.731 176.519 252.544 176.519 254.976C176.519 256.213 176.369 257.6 176.071 259.136C175.772 260.629 175.345 262.464 174.791 264.64C174.449 265.963 174.129 267.264 173.831 268.544C173.575 269.781 173.447 270.763 173.447 271.488C173.447 272.341 173.639 273.003 174.023 273.472C174.407 273.941 175.068 274.176 176.007 274.176C177.287 274.176 178.311 273.728 179.079 272.832C179.847 271.893 180.615 270.464 181.382 268.544H184.071C182.492 273.237 180.657 276.395 178.567 278.016C176.519 279.595 174.385 280.384 172.167 280.384ZM188.671 280.384C186.623 280.384 184.895 280 183.487 279.232C182.079 278.421 181.034 277.397 180.351 276.16C179.668 274.88 179.327 273.557 179.327 272.192C179.327 270.784 179.668 269.568 180.351 268.544C180.991 267.477 181.78 266.709 182.719 266.24C184.383 263.253 185.834 260.245 187.071 257.216C188.308 254.144 189.482 250.837 190.591 247.296L200.063 246.016C200.276 251.477 200.639 257.387 201.151 263.744C201.364 266.304 201.471 268.16 201.471 269.312C201.471 270.293 201.386 271.104 201.215 271.744C203.22 270.592 204.756 269.525 205.823 268.544H208.511C205.78 271.701 202.516 274.368 198.719 276.544C197.482 277.867 195.946 278.848 194.111 279.488C192.319 280.085 190.506 280.384 188.671 280.384ZM186.623 275.328C188.202 275.328 189.524 274.859 190.591 273.92C191.658 272.981 192.191 271.467 192.191 269.376C192.191 268.096 192.063 266.304 191.807 264C191.38 259.136 191.103 255.872 190.975 254.208C189.951 257.579 188.223 261.611 185.791 266.304C186.772 266.816 187.263 267.563 187.263 268.544C187.263 269.355 186.986 270.08 186.431 270.72C185.919 271.36 185.258 271.68 184.447 271.68C183.551 271.68 182.975 271.403 182.719 270.848C182.719 272.384 183.018 273.515 183.615 274.24C184.255 274.965 185.258 275.328 186.623 275.328ZM212.149 280.384C210.101 280.384 208.437 279.744 207.157 278.464C205.919 277.184 205.3 275.264 205.3 272.704C205.3 271.637 205.471 270.251 205.812 268.544L209.653 250.56H207.541L208.053 248H210.165L212.085 239.168L221.557 237.888L219.381 248H223.221L222.708 250.56H218.869L214.773 269.76C214.602 270.4 214.517 271.083 214.517 271.808C214.517 272.661 214.709 273.28 215.093 273.664C215.519 274.005 216.202 274.176 217.141 274.176C218.378 274.176 219.53 273.664 220.597 272.64C221.663 271.573 222.431 270.208 222.901 268.544H225.589C224.01 273.152 221.983 276.288 219.509 277.952C217.034 279.573 214.581 280.384 212.149 280.384ZM230.555 280.384C228.123 280.384 226.096 279.552 224.475 277.888C222.854 276.224 222.043 273.621 222.043 270.08C222.043 266.923 222.662 263.616 223.899 260.16C225.179 256.661 227.056 253.717 229.531 251.328C232.048 248.896 235.035 247.68 238.491 247.68C240.24 247.68 241.542 247.979 242.395 248.576C243.248 249.173 243.675 249.963 243.675 250.944V251.392L244.379 248H253.595L248.987 269.76C248.816 270.4 248.731 271.083 248.731 271.808C248.731 273.643 249.606 274.56 251.355 274.56C252.55 274.56 253.574 274.005 254.427 272.896C255.323 271.787 256.027 270.336 256.539 268.544H259.227C257.648 273.152 255.686 276.288 253.339 277.952C251.035 279.573 248.71 280.384 246.363 280.384C244.571 280.384 243.12 279.893 242.011 278.912C240.944 277.888 240.304 276.416 240.091 274.496C238.854 276.245 237.467 277.675 235.931 278.784C234.438 279.851 232.646 280.384 230.555 280.384ZM234.715 274.176C235.782 274.176 236.827 273.685 237.851 272.704C238.918 271.68 239.643 270.293 240.027 268.544L243.099 254.08C243.099 253.525 242.886 252.992 242.459 252.48C242.032 251.925 241.371 251.648 240.475 251.648C238.768 251.648 237.232 252.651 235.867 254.656C234.502 256.619 233.435 259.008 232.667 261.824C231.899 264.597 231.515 267.051 231.515 269.184C231.515 271.317 231.814 272.683 232.411 273.28C233.051 273.877 233.819 274.176 234.715 274.176ZM265.075 280.384C262.173 280.384 259.955 279.68 258.419 278.272C256.883 276.821 256.114 274.795 256.114 272.192C256.114 270.912 256.264 269.696 256.562 268.544L263.411 236.48L272.883 235.2L269.811 249.6C271.005 248.875 271.987 248.405 272.755 248.192C273.523 247.936 274.291 247.808 275.059 247.808C280.093 247.808 282.611 251.456 282.611 258.752C282.611 261.696 282.035 264.853 280.883 268.224C279.773 271.552 277.896 274.411 275.251 276.8C272.648 279.189 269.256 280.384 265.075 280.384ZM268.659 274.176C269.981 274.176 271.219 273.365 272.371 271.744C273.523 270.08 274.44 268.032 275.123 265.6C275.805 263.125 276.147 260.757 276.147 258.496C276.147 256.789 275.848 255.339 275.251 254.144C274.653 252.949 273.821 252.352 272.755 252.352C272.115 252.352 271.389 252.459 270.579 252.672C269.811 252.843 269.277 253.12 268.979 253.504L265.459 269.76C265.331 270.272 265.267 270.763 265.267 271.232C265.267 273.195 266.397 274.176 268.659 274.176ZM291.336 280.384C289.288 280.384 287.624 279.744 286.344 278.464C285.107 277.184 284.488 275.264 284.488 272.704C284.488 271.637 284.659 270.251 285 268.544L291.848 236.48L301.32 235.2L293.96 269.76C293.789 270.4 293.704 271.083 293.704 271.808C293.704 272.661 293.896 273.28 294.28 273.664C294.707 274.005 295.389 274.176 296.328 274.176C297.565 274.176 298.717 273.664 299.784 272.64C300.851 271.573 301.619 270.208 302.088 268.544H304.776C303.197 273.152 301.171 276.288 298.696 277.952C296.221 279.573 293.768 280.384 291.336 280.384ZM309.743 280.384C307.311 280.384 305.284 279.552 303.663 277.888C302.041 276.224 301.23 273.621 301.23 270.08C301.23 266.923 301.849 263.616 303.087 260.16C304.367 256.661 306.244 253.717 308.719 251.328C311.236 248.896 314.223 247.68 317.679 247.68C319.428 247.68 320.729 247.979 321.583 248.576C322.436 249.173 322.863 249.963 322.863 250.944V251.392L323.567 248H332.783L328.175 269.76C328.004 270.4 327.919 271.083 327.919 271.808C327.919 273.643 328.793 274.56 330.543 274.56C331.737 274.56 332.761 274.005 333.615 272.896C334.511 271.787 335.215 270.336 335.727 268.544H338.415C336.836 273.152 334.873 276.288 332.527 277.952C330.223 279.573 327.897 280.384 325.551 280.384C323.759 280.384 322.308 279.893 321.199 278.912C320.132 277.888 319.492 276.416 319.279 274.496C318.041 276.245 316.655 277.675 315.119 278.784C313.625 279.851 311.833 280.384 309.743 280.384ZM313.903 274.176C314.969 274.176 316.015 273.685 317.039 272.704C318.105 271.68 318.831 270.293 319.215 268.544L322.287 254.08C322.287 253.525 322.073 252.992 321.647 252.48C321.22 251.925 320.559 251.648 319.663 251.648C317.956 251.648 316.42 252.651 315.055 254.656C313.689 256.619 312.623 259.008 311.855 261.824C311.087 264.597 310.703 267.051 310.703 269.184C310.703 271.317 311.001 272.683 311.599 273.28C312.239 273.877 313.007 274.176 313.903 274.176ZM373.574 280.384C371.313 280.384 369.67 279.701 368.646 278.336C367.622 276.971 367.11 275.243 367.11 273.152C367.11 272.256 367.217 271.253 367.43 270.144C367.643 268.992 367.857 267.883 368.07 266.816C368.326 265.749 368.497 265.067 368.582 264.768C368.923 263.275 369.243 261.803 369.542 260.352C369.841 258.901 369.99 257.728 369.99 256.832C369.99 254.656 369.222 253.568 367.686 253.568C366.577 253.568 365.595 254.123 364.742 255.232C363.889 256.299 363.206 257.707 362.694 259.456L358.342 280H349.126L353.798 257.92C353.926 257.408 353.99 256.875 353.99 256.32C353.99 254.443 353.35 253.504 352.07 253.504C350.875 253.504 349.83 254.059 348.934 255.168C348.081 256.235 347.398 257.664 346.886 259.456L342.534 280H333.318L340.102 248H349.318L348.614 251.328C350.79 248.896 353.393 247.68 356.422 247.68C360.177 247.68 362.374 249.515 363.014 253.184C365.361 249.557 368.326 247.744 371.91 247.744C374.086 247.744 375.814 248.341 377.094 249.536C378.374 250.731 379.014 252.544 379.014 254.976C379.014 256.213 378.865 257.6 378.566 259.136C378.267 260.629 377.841 262.464 377.286 264.64C376.945 265.963 376.625 267.264 376.326 268.544C376.07 269.781 375.942 270.763 375.942 271.488C375.942 272.341 376.134 273.003 376.518 273.472C376.902 273.941 377.563 274.176 378.502 274.176C379.526 274.176 380.23 274.048 380.614 273.792C380.358 275.968 379.569 277.611 378.246 278.72C376.966 279.829 375.409 280.384 373.574 280.384Z" fill="#DFDFDF"/>
</svg>
