<svg width="192" height="192" viewBox="0 0 192 192" fill="none" xmlns="http://www.w3.org/2000/svg">
<rect width="192" height="192" rx="20" fill="#2F2F2F"/>
<path d="M53.008 91.704C52.48 91.704 52.032 91.52 51.664 91.152C51.296 90.784 51.112 90.336 51.112 89.808C51.112 89.28 51.296 88.832 51.664 88.464C52.032 88.08 52.48 87.888 53.008 87.888C53.536 87.888 53.984 88.08 54.352 88.464C54.736 88.832 54.928 89.28 54.928 89.808C54.928 90.336 54.736 90.784 54.352 91.152C53.984 91.52 53.536 91.704 53.008 91.704ZM51.376 105.144C50.608 105.144 49.984 104.904 49.504 104.424C49.04 103.944 48.808 103.224 48.808 102.264C48.808 101.864 48.872 101.344 49 100.704L50.632 93H54.088L52.36 101.16C52.296 101.4 52.264 101.656 52.264 101.928C52.264 102.248 52.336 102.48 52.48 102.624C52.64 102.752 52.896 102.816 53.248 102.816C53.712 102.816 54.144 102.624 54.544 102.24C54.944 101.84 55.232 101.328 55.408 100.704H56.416C55.824 102.432 55.064 103.608 54.136 104.232C53.208 104.84 52.288 105.144 51.376 105.144ZM64.0624 105.144C63.0864 105.144 62.3664 104.888 61.9024 104.376C61.4544 103.848 61.2304 103.2 61.2304 102.432C61.2304 102.096 61.2704 101.72 61.3504 101.304C61.4304 100.872 61.5104 100.456 61.5904 100.056C61.6864 99.656 61.7504 99.4 61.7824 99.288C61.9104 98.728 62.0304 98.176 62.1424 97.632C62.2544 97.088 62.3104 96.648 62.3104 96.312C62.3104 95.496 62.0224 95.088 61.4464 95.088C61.0304 95.088 60.6624 95.296 60.3424 95.712C60.0224 96.112 59.7664 96.64 59.5744 97.296L57.9424 105H54.4864L57.0304 93H60.4864L60.2224 94.248C61.0224 93.352 61.9584 92.904 63.0304 92.904C63.8464 92.904 64.4944 93.128 64.9744 93.576C65.4544 94.024 65.6944 94.704 65.6944 95.616C65.6944 96.08 65.6384 96.6 65.5264 97.176C65.4144 97.736 65.2544 98.424 65.0464 99.24C64.9184 99.736 64.7984 100.224 64.6864 100.704C64.5904 101.168 64.5424 101.536 64.5424 101.808C64.5424 102.128 64.6144 102.376 64.7584 102.552C64.9024 102.728 65.1504 102.816 65.5024 102.816C65.9824 102.816 66.3664 102.648 66.6544 102.312C66.9424 101.96 67.2304 101.424 67.5184 100.704H68.5264C67.9344 102.464 67.2464 103.648 66.4624 104.256C65.6944 104.848 64.8944 105.144 64.0624 105.144ZM70.2516 105.144C69.4836 105.144 68.8356 105 68.3076 104.712C67.7796 104.408 67.3876 104.024 67.1316 103.56C66.8756 103.08 66.7476 102.584 66.7476 102.072C66.7476 101.544 66.8756 101.088 67.1316 100.704C67.3716 100.304 67.6676 100.016 68.0196 99.84C68.6436 98.72 69.1876 97.592 69.6516 96.456C70.1156 95.304 70.5556 94.064 70.9716 92.736L74.5236 92.256C74.6036 94.304 74.7396 96.52 74.9316 98.904C75.0116 99.864 75.0516 100.56 75.0516 100.992C75.0516 101.36 75.0196 101.664 74.9556 101.904C75.7076 101.472 76.2836 101.072 76.6836 100.704H77.6916C76.6676 101.888 75.4436 102.888 74.0196 103.704C73.5556 104.2 72.9796 104.568 72.2916 104.808C71.6196 105.032 70.9396 105.144 70.2516 105.144ZM69.4836 103.248C70.0756 103.248 70.5716 103.072 70.9716 102.72C71.3716 102.368 71.5716 101.8 71.5716 101.016C71.5716 100.536 71.5236 99.864 71.4276 99C71.2676 97.176 71.1636 95.952 71.1156 95.328C70.7316 96.592 70.0836 98.104 69.1716 99.864C69.5396 100.056 69.7236 100.336 69.7236 100.704C69.7236 101.008 69.6196 101.28 69.4116 101.52C69.2196 101.76 68.9716 101.88 68.6676 101.88C68.3316 101.88 68.1156 101.776 68.0196 101.568C68.0196 102.144 68.1316 102.568 68.3556 102.84C68.5956 103.112 68.9716 103.248 69.4836 103.248ZM79.0557 105.144C78.2877 105.144 77.6637 104.904 77.1837 104.424C76.7197 103.944 76.4877 103.224 76.4877 102.264C76.4877 101.864 76.5517 101.344 76.6797 100.704L78.1197 93.96H77.3277L77.5197 93H78.3117L79.0317 89.688L82.5837 89.208L81.7677 93H83.2077L83.0157 93.96H81.5757L80.0397 101.16C79.9757 101.4 79.9437 101.656 79.9437 101.928C79.9437 102.248 80.0157 102.48 80.1597 102.624C80.3197 102.752 80.5757 102.816 80.9277 102.816C81.3917 102.816 81.8237 102.624 82.2237 102.24C82.6237 101.84 82.9117 101.328 83.0877 100.704H84.0957C83.5037 102.432 82.7437 103.608 81.8157 104.232C80.8877 104.84 79.9677 105.144 79.0557 105.144ZM85.9581 105.144C85.0461 105.144 84.2861 104.832 83.6781 104.208C83.0701 103.584 82.7661 102.608 82.7661 101.28C82.7661 100.096 82.9981 98.856 83.4621 97.56C83.9421 96.248 84.6461 95.144 85.5741 94.248C86.5181 93.336 87.6381 92.88 88.9341 92.88C89.5901 92.88 90.0781 92.992 90.3981 93.216C90.7181 93.44 90.8781 93.736 90.8781 94.104V94.272L91.1421 93H94.5981L92.8701 101.16C92.8061 101.4 92.7741 101.656 92.7741 101.928C92.7741 102.616 93.1021 102.96 93.7581 102.96C94.2061 102.96 94.5901 102.752 94.9101 102.336C95.2461 101.92 95.5101 101.376 95.7021 100.704H96.7101C96.1181 102.432 95.3821 103.608 94.5021 104.232C93.6381 104.84 92.7661 105.144 91.8861 105.144C91.2141 105.144 90.6701 104.96 90.2541 104.592C89.8541 104.208 89.6141 103.656 89.5341 102.936C89.0701 103.592 88.5501 104.128 87.9741 104.544C87.4141 104.944 86.7421 105.144 85.9581 105.144ZM87.5181 102.816C87.9181 102.816 88.3101 102.632 88.6941 102.264C89.0941 101.88 89.3661 101.36 89.5101 100.704L90.6621 95.28C90.6621 95.072 90.5821 94.872 90.4221 94.68C90.2621 94.472 90.0141 94.368 89.6781 94.368C89.0381 94.368 88.4621 94.744 87.9501 95.496C87.4381 96.232 87.0381 97.128 86.7501 98.184C86.4621 99.224 86.3181 100.144 86.3181 100.944C86.3181 101.744 86.4301 102.256 86.6541 102.48C86.8941 102.704 87.1821 102.816 87.5181 102.816ZM98.9029 105.144C97.8149 105.144 96.9829 104.88 96.4069 104.352C95.8309 103.808 95.5429 103.048 95.5429 102.072C95.5429 101.592 95.5989 101.136 95.7109 100.704L98.2789 88.68L101.831 88.2L100.679 93.6C101.127 93.328 101.495 93.152 101.783 93.072C102.071 92.976 102.359 92.928 102.647 92.928C104.535 92.928 105.479 94.296 105.479 97.032C105.479 98.136 105.263 99.32 104.831 100.584C104.415 101.832 103.711 102.904 102.719 103.8C101.743 104.696 100.471 105.144 98.9029 105.144ZM100.247 102.816C100.743 102.816 101.207 102.512 101.639 101.904C102.071 101.28 102.415 100.512 102.671 99.6C102.927 98.672 103.055 97.784 103.055 96.936C103.055 96.296 102.943 95.752 102.719 95.304C102.495 94.856 102.183 94.632 101.783 94.632C101.543 94.632 101.271 94.672 100.967 94.752C100.679 94.816 100.479 94.92 100.367 95.064L99.0469 101.16C98.9989 101.352 98.9749 101.536 98.9749 101.712C98.9749 102.448 99.3989 102.816 100.247 102.816ZM108.751 105.144C107.983 105.144 107.359 104.904 106.879 104.424C106.415 103.944 106.183 103.224 106.183 102.264C106.183 101.864 106.247 101.344 106.375 100.704L108.943 88.68L112.495 88.2L109.735 101.16C109.671 101.4 109.639 101.656 109.639 101.928C109.639 102.248 109.711 102.48 109.855 102.624C110.015 102.752 110.271 102.816 110.623 102.816C111.087 102.816 111.519 102.624 111.919 102.24C112.319 101.84 112.607 101.328 112.783 100.704H113.791C113.199 102.432 112.439 103.608 111.511 104.232C110.583 104.84 109.663 105.144 108.751 105.144ZM115.653 105.144C114.741 105.144 113.981 104.832 113.373 104.208C112.765 103.584 112.461 102.608 112.461 101.28C112.461 100.096 112.693 98.856 113.157 97.56C113.637 96.248 114.341 95.144 115.269 94.248C116.213 93.336 117.333 92.88 118.629 92.88C119.285 92.88 119.773 92.992 120.093 93.216C120.413 93.44 120.573 93.736 120.573 94.104V94.272L120.837 93H124.293L122.565 101.16C122.501 101.4 122.469 101.656 122.469 101.928C122.469 102.616 122.797 102.96 123.453 102.96C123.901 102.96 124.285 102.752 124.605 102.336C124.941 101.92 125.205 101.376 125.397 100.704H126.405C125.813 102.432 125.077 103.608 124.197 104.232C123.333 104.84 122.461 105.144 121.581 105.144C120.909 105.144 120.365 104.96 119.949 104.592C119.549 104.208 119.309 103.656 119.229 102.936C118.765 103.592 118.245 104.128 117.669 104.544C117.109 104.944 116.437 105.144 115.653 105.144ZM117.213 102.816C117.613 102.816 118.005 102.632 118.389 102.264C118.789 101.88 119.061 101.36 119.205 100.704L120.357 95.28C120.357 95.072 120.277 94.872 120.117 94.68C119.957 94.472 119.709 94.368 119.373 94.368C118.733 94.368 118.157 94.744 117.645 95.496C117.133 96.232 116.733 97.128 116.445 98.184C116.157 99.224 116.013 100.144 116.013 100.944C116.013 101.744 116.125 102.256 116.349 102.48C116.589 102.704 116.877 102.816 117.213 102.816ZM139.59 105.144C138.742 105.144 138.126 104.888 137.742 104.376C137.358 103.864 137.166 103.216 137.166 102.432C137.166 102.096 137.206 101.72 137.286 101.304C137.366 100.872 137.446 100.456 137.526 100.056C137.622 99.656 137.686 99.4 137.718 99.288C137.846 98.728 137.966 98.176 138.078 97.632C138.19 97.088 138.246 96.648 138.246 96.312C138.246 95.496 137.958 95.088 137.382 95.088C136.966 95.088 136.598 95.296 136.278 95.712C135.958 96.112 135.702 96.64 135.51 97.296L133.878 105H130.422L132.174 96.72C132.222 96.528 132.246 96.328 132.246 96.12C132.246 95.416 132.006 95.064 131.526 95.064C131.078 95.064 130.686 95.272 130.35 95.688C130.03 96.088 129.774 96.624 129.582 97.296L127.95 105H124.494L127.038 93H130.494L130.23 94.248C131.046 93.336 132.022 92.88 133.158 92.88C134.566 92.88 135.39 93.568 135.63 94.944C136.51 93.584 137.622 92.904 138.966 92.904C139.782 92.904 140.43 93.128 140.91 93.576C141.39 94.024 141.63 94.704 141.63 95.616C141.63 96.08 141.574 96.6 141.462 97.176C141.35 97.736 141.19 98.424 140.982 99.24C140.854 99.736 140.734 100.224 140.622 100.704C140.526 101.168 140.478 101.536 140.478 101.808C140.478 102.128 140.55 102.376 140.694 102.552C140.838 102.728 141.086 102.816 141.438 102.816C141.822 102.816 142.086 102.768 142.23 102.672C142.134 103.488 141.838 104.104 141.342 104.52C140.862 104.936 140.278 105.144 139.59 105.144Z" fill="#DFDFDF"/>
</svg>
